<?xml version="1.0" standalone="no"?>
<!DOCTYPE svg PUBLIC "-//W3C//DTD SVG 20010904//EN"
 "http://www.w3.org/TR/2001/REC-SVG-20010904/DTD/svg10.dtd">
<svg version="1.0" xmlns="http://www.w3.org/2000/svg"
 width="624.000000pt" height="176.000000pt" viewBox="0 0 624.000000 176.000000"
 preserveAspectRatio="xMidYMid meet">

<g transform="translate(0.000000,176.000000) scale(0.100000,-0.100000)"
fill="#000000" stroke="none">
<path d="M580 1127 c-19 -6 -54 -30 -77 -53 -68 -68 -82 -162 -37 -252 69
-139 263 -156 353 -31 126 173 -36 400 -239 336z m99 -68 c17 -6 31 -14 31
-17 0 -28 -55 -251 -61 -245 -7 8 -61 245 -56 248 1 0 13 6 27 12 14 7 25 12
26 12 1 1 15 -4 33 -10z"/>
<path d="M1010 920 l0 -220 70 0 70 0 0 95 c0 82 3 98 20 115 25 25 62 26 83
2 13 -15 17 -39 17 -115 l0 -97 70 0 70 0 0 131 0 131 -34 34 c-21 21 -45 35
-62 36 -75 4 -111 -7 -145 -43 l-28 -30 6 91 6 90 -72 0 -71 0 0 -220z"/>
<path d="M2200 1055 l0 -84 -24 24 c-32 31 -91 47 -139 35 -75 -16 -111 -72
-111 -170 0 -99 35 -151 112 -166 49 -10 98 4 132 37 l30 31 0 -31 0 -31 70 0
70 0 0 220 0 220 -70 0 -70 0 0 -85z m-25 -139 c28 -20 26 -83 -4 -107 -53
-43 -107 -4 -102 73 3 43 66 63 106 34z"/>
<path d="M4205 1108 c-2 -7 -6 -29 -7 -48 -3 -31 -6 -35 -35 -38 -47 -5 -44
-32 2 -32 l35 0 0 -110 c0 -134 11 -164 69 -181 47 -14 111 -4 111 16 0 11
-13 15 -47 15 -81 0 -93 21 -93 159 l0 101 70 0 c55 0 70 3 70 15 0 11 -16 15
-67 17 l-68 3 -5 44 c-5 43 -25 66 -35 39z"/>
<path d="M2507 1030 c-101 -18 -148 -77 -116 -146 19 -39 55 -54 142 -61 76
-6 111 -18 102 -34 -8 -12 -102 -12 -110 1 -10 15 -145 13 -145 -3 0 -21 30
-56 63 -74 46 -25 228 -25 274 0 47 25 67 59 59 102 -10 49 -40 65 -154 81
-53 7 -98 13 -99 13 -2 1 -3 7 -3 15 0 28 64 35 96 11 12 -9 43 -14 87 -15 66
0 68 1 62 23 -11 33 -44 65 -79 76 -49 15 -127 20 -179 11z"/>
<path d="M2955 1029 c-65 -13 -109 -48 -130 -104 -57 -148 79 -265 263 -227
97 20 142 71 142 162 0 74 -38 135 -100 158 -42 16 -123 21 -175 11z m119
-121 c17 -24 21 -65 8 -84 -26 -39 -92 -38 -118 2 -19 28 -11 79 14 94 31 18
80 12 96 -12z"/>
<path d="M3535 1033 c-47 -9 -79 -28 -96 -57 l-20 -31 7 43 7 42 -72 0 -71 0
0 -165 0 -165 70 0 70 0 0 95 c0 82 3 98 20 115 24 24 48 25 78 4 20 -14 22
-23 22 -115 l0 -99 70 0 70 0 0 123 c0 103 -3 127 -20 154 -27 44 -81 67 -135
56z"/>
<path d="M1470 905 c0 -145 11 -178 65 -201 63 -26 149 -9 177 35 18 29 25 26
20 -9 l-4 -30 71 0 71 0 0 165 0 165 -70 0 -70 0 0 -87 c0 -108 -12 -137 -60
-141 -51 -5 -60 14 -60 130 l0 98 -70 0 -70 0 0 -125z"/>
<path d="M3824 1019 c-46 -13 -76 -50 -72 -89 5 -52 38 -69 163 -86 59 -7 114
-19 122 -26 8 -6 13 -23 11 -37 -9 -79 -235 -79 -255 0 -6 23 -43 26 -43 3 0
-25 53 -71 96 -83 80 -22 187 -8 225 30 14 14 19 31 17 56 -4 53 -35 71 -147
83 -119 13 -146 25 -146 65 0 24 7 33 35 47 68 35 178 15 202 -36 10 -24 48
-37 48 -17 0 23 -49 77 -80 88 -41 14 -132 15 -176 2z"/>
<path d="M4534 1019 c-35 -10 -82 -53 -95 -87 -5 -13 -9 -47 -9 -76 0 -67 28
-112 90 -144 37 -19 56 -23 107 -19 112 8 165 58 171 160 3 52 0 67 -20 97
-45 67 -149 97 -244 69z m171 -45 c54 -35 70 -114 39 -180 -21 -44 -65 -67
-129 -67 -96 0 -145 48 -145 142 0 58 32 105 83 121 43 13 120 5 152 -16z"/>
<path d="M4971 1014 c-12 -9 -31 -30 -42 -48 l-19 -31 0 43 c0 35 -3 42 -20
42 -19 0 -20 -7 -20 -160 0 -149 1 -160 19 -160 16 0 19 11 23 103 8 149 32
187 117 187 34 0 41 3 41 20 0 16 -7 20 -38 20 -21 0 -48 -7 -61 -16z"/>
<path d="M5206 1020 c-126 -40 -143 -236 -26 -304 46 -28 160 -29 208 -3 29
16 72 69 72 90 0 18 -28 4 -55 -29 -62 -73 -209 -64 -250 16 -31 60 -31 60
146 60 l162 0 -6 42 c-6 45 -28 81 -69 111 -29 22 -136 32 -182 17z m151 -40
c35 -21 68 -74 59 -96 -5 -12 -30 -14 -138 -12 l-133 3 2 29 c6 78 132 124
210 76z"/>
</g>
</svg>
