<svg width="34" height="28" viewBox="0 0 34 28" fill="none" xmlns="http://www.w3.org/2000/svg">
<path d="M2.80849 7.866L2.81671 7.87025C2.88825 7.77424 2.9954 7.72015 3.11365 7.72015H8.65017C8.56245 8.20914 8.5172 8.71229 8.5172 9.22449C8.5172 9.68109 8.88852 10.0501 9.34282 10.0501C9.79711 10.0501 10.1684 9.68109 10.1684 9.22449C10.1684 8.7078 10.2259 8.20444 10.3344 7.72015H23.7632C23.8728 8.20957 23.9277 8.71291 23.9277 9.22449C23.9277 9.68109 24.299 10.0501 24.7533 10.0501C25.2076 10.0501 25.5789 9.68109 25.5789 9.22449C25.5789 8.71625 25.5343 8.21323 25.4466 7.72015H30.9827C31.1027 7.72015 31.2103 7.77434 31.2807 7.8686C31.3519 7.96528 31.3726 8.08281 31.3391 8.1969C31.3391 8.19709 31.339 8.19728 31.3389 8.19746L26.3283 24.9575L2.80849 7.866ZM2.80849 7.866L2.81572 7.87146C2.74483 7.96545 2.72387 8.08277 2.75828 8.1969L2.75849 8.1976L7.76678 24.9574C7.88892 25.3635 8.27198 25.6494 8.69637 25.6494H25.3987C25.8229 25.6494 26.2057 25.3647 26.3282 24.9579L2.80849 7.866ZM6.18691 25.4323L6.18693 25.4323C6.51662 26.5342 7.54684 27.3021 8.69672 27.3021H25.4019C26.5515 27.3021 27.5834 26.5345 27.9118 25.432L32.9241 8.66911L32.9242 8.66854C33.1076 8.05095 32.9916 7.3981 32.6062 6.88182C32.222 6.36524 31.6279 6.06867 30.9846 6.06867H24.9757C23.6882 2.84127 20.5435 0.696094 17.05 0.696094C13.4604 0.696094 10.381 2.92487 9.12435 6.06867H3.11373C2.46971 6.06867 1.87719 6.3657 1.49205 6.88189L1.49151 6.88262C1.10841 7.39934 0.990454 8.05055 1.17552 8.6703L1.17555 8.67039L6.18691 25.4323ZM10.9382 6.07031C12.0845 3.86001 14.3947 2.3481 17.0497 2.34789H17.0503C19.6402 2.3481 21.9916 3.81111 23.163 6.07031H10.9382Z" fill="black" stroke="black" stroke-width="0.6"/>
<path d="M8.82152 13.6824H8.82151C8.36541 13.6824 7.9959 14.0519 7.9959 14.508C7.9959 14.9643 8.36533 15.3339 8.82151 15.3339H25.2783C25.7344 15.3339 26.1039 14.9644 26.1039 14.5083C26.1039 14.0517 25.7326 13.6826 25.2783 13.6826L8.82152 13.6824Z" fill="black" stroke="black" stroke-width="0.6"/>
<path d="M24.0603 17.3348H10.0412C9.58514 17.3348 9.21562 17.7043 9.21562 18.1604C9.21562 18.617 9.58695 18.986 10.0412 18.986H24.0603C24.5164 18.986 24.8859 18.6165 24.8859 18.1604C24.8859 17.7043 24.5164 17.3348 24.0603 17.3348Z" fill="black" stroke="black" stroke-width="0.6"/>
<path d="M24.1231 21.8149C24.1234 21.3579 23.7516 20.9891 23.2975 20.9891H10.802C10.3459 20.9891 9.97637 21.3586 9.97637 21.8147C9.97637 22.2713 10.3477 22.6403 10.802 22.6403H23.2975C23.7535 22.6403 24.123 22.2709 24.1231 21.8149ZM24.1231 21.8149L23.8231 21.8147H24.1231C24.1231 21.8148 24.1231 21.8148 24.1231 21.8149Z" fill="black" stroke="black" stroke-width="0.6"/>
</svg>
