<svg width="26" height="27" viewBox="0 0 26 27" fill="none" xmlns="http://www.w3.org/2000/svg">
<path d="M16.4024 7.20356C16.4024 5.16264 14.7831 3.51451 12.7912 3.51451C10.7992 3.51451 9.18002 5.16264 9.18002 7.20356C9.18002 9.24423 10.7992 10.8924 12.7912 10.8924C14.7831 10.8924 16.4024 9.24423 16.4024 7.20356ZM18.9024 7.20356C18.9024 10.6291 16.1696 13.4104 12.7911 13.4104C9.41252 13.4104 6.67979 10.6289 6.67979 7.20356C6.67979 3.77773 9.41252 0.996094 12.7911 0.996094C16.1696 0.996094 18.9024 3.77761 18.9024 7.20356ZM0.291135 21.3411C0.291135 17.0998 8.62443 15.6861 12.7911 15.6861C16.9577 15.6861 25.291 17.0998 25.291 21.3411V25.3299C25.291 26.2502 24.5428 26.9961 23.6118 26.9961H1.97023C1.04274 26.9961 0.291016 26.2567 0.291016 25.3299L0.291135 21.3411ZM22.791 24.4779V21.3411C22.791 20.804 21.8687 20.0096 19.8056 19.3095C17.7358 18.6074 14.9642 18.2043 12.7913 18.2043C10.6185 18.2043 7.84669 18.6073 5.77706 19.3095C3.71398 20.0096 2.7916 20.804 2.7916 21.3411V24.4779H22.791Z" fill="black"/>
</svg>
