<svg width="31" height="27" viewBox="0 0 31 27" fill="none" xmlns="http://www.w3.org/2000/svg">
<path d="M8.22786 0.996094C6.19285 0.996094 4.16267 1.78123 2.61342 3.33806C-0.485014 6.45202 -0.481226 11.4937 2.61342 14.6097L14.6019 26.6941C14.7945 26.8875 15.0562 26.9961 15.329 26.9961C15.6018 26.9961 15.8637 26.8875 16.0563 26.6941C20.0582 22.6719 24.0641 18.6533 28.0656 14.6311C31.164 11.5171 31.164 6.46259 28.0656 3.34906C24.9671 0.235525 19.9245 0.235097 16.8257 3.34906L15.3498 4.84624L13.8526 3.3383C12.3033 1.78123 10.2624 0.996339 8.22737 0.996339L8.22786 0.996094ZM8.22786 3.02799C9.72933 3.02799 11.238 3.61545 12.3986 4.78177L14.6229 7.01679C14.8155 7.21015 15.0774 7.31876 15.3502 7.31876C15.623 7.31876 15.8847 7.21015 16.0773 7.01679L18.2803 4.79253C20.6015 2.45961 24.2898 2.45961 26.6108 4.79253C28.9317 7.12544 28.932 10.8438 26.6108 13.1768C22.8504 16.956 19.0888 20.744 15.3287 24.5236L4.06808 13.1664C1.7483 10.8303 1.74689 7.11512 4.06808 4.78214C5.22867 3.6158 6.72659 3.02835 8.22805 3.02835L8.22786 3.02799Z" fill="black"/>
</svg>
